<?xml version="1.0" encoding="utf-8"?>
<!-- Uploaded to: SVG Repo, www.svgrepo.com, Transformed by: SVG Repo Mixer Tools -->
<svg fill="#2196f3" height="800px" width="800px" version="1.1" id="Capa_1" xmlns="http://www.w3.org/2000/svg" xmlns:xlink="http://www.w3.org/1999/xlink" viewBox="0 0 297 297" xml:space="preserve">

<g id="SVGRepo_bgCarrier" stroke-width="0"/>

<g id="SVGRepo_tracerCarrier" stroke-linecap="round" stroke-linejoin="round"/>

<g id="SVGRepo_iconCarrier"> <g> <path d="M146.774,75.328c-0.394-5.47-4.947-9.706-10.431-9.706H80.394c-5.484,0-10.037,4.236-10.431,9.706L54.799,285.791 c-0.208,2.896,0.797,5.75,2.776,7.876c1.978,2.126,4.751,3.333,7.655,3.333h86.276c0.006,0,0.014,0,0.02,0 c5.776,0,10.458-4.682,10.458-10.458c0-0.484-0.033-0.961-0.096-1.428L146.774,75.328z"/> <path d="M88.76,51.243h39.216c0.01,0.001,0.015,0.001,0.02,0c5.776,0,10.458-4.683,10.458-10.458c0-0.879-0.108-1.734-0.313-2.55 l-4.631-25.465c-0.905-4.973-5.235-8.587-10.289-8.587H93.118c-5.112,0-9.475,3.696-10.316,8.738l-4.358,26.144 c-0.506,3.033,0.349,6.134,2.337,8.48C82.768,49.891,85.686,51.243,88.76,51.243z"/> <path d="M231.77,0c-5.775,0-10.458,4.682-10.458,10.458v67.324l-16.719,50.156c-0.355,1.066-0.536,2.183-0.536,3.307v155.298 c0,5.775,4.683,10.458,10.458,10.458c5.775,0,10.458-4.682,10.458-10.458v-153.6l16.719-50.156 c0.355-1.066,0.536-2.182,0.536-3.307V10.458C242.228,4.682,237.545,0,231.77,0z"/> <path d="M214.996,67.017V5.664c0-3.128-2.536-5.664-5.664-5.664h-15.774C187.783,0,183.1,4.682,183.1,10.458 c0,3.583,1.805,6.743,4.552,8.628c-2.748,1.885-4.552,5.044-4.552,8.628s1.805,6.743,4.552,8.628 c-2.748,1.885-4.552,5.044-4.552,8.628s1.805,6.743,4.552,8.628c-2.748,1.884-4.552,5.044-4.552,8.628 c0,5.775,4.683,10.458,10.458,10.458h15.774C212.46,72.681,214.996,70.145,214.996,67.017z"/> </g> </g>

</svg>